<?xml version="1.0" encoding="UTF-8" standalone="no"?>
<svg
   xmlns:dc="http://purl.org/dc/elements/1.1/"
   xmlns:cc="http://creativecommons.org/ns#"
   xmlns:rdf="http://www.w3.org/1999/02/22-rdf-syntax-ns#"
   xmlns:svg="http://www.w3.org/2000/svg"
   xmlns="http://www.w3.org/2000/svg"
   xmlns:sodipodi="http://sodipodi.sourceforge.net/DTD/sodipodi-0.dtd"
   xmlns:inkscape="http://www.inkscape.org/namespaces/inkscape"
   version="1.0"
   width="1000.000000pt"
   height="1000.000000pt"
   viewBox="0 0 1000.000000 1000.000000"
   preserveAspectRatio="xMidYMid meet"
   id="svg837"
   sodipodi:docname="BlazorWebView.svg"
   inkscape:version="0.92.4 (5da689c313, 2019-01-14)">
  <defs
     id="defs841" />
  <sodipodi:namedview
     pagecolor="#ffffff"
     bordercolor="#666666"
     borderopacity="1"
     objecttolerance="10"
     gridtolerance="10"
     guidetolerance="10"
     inkscape:pageopacity="0"
     inkscape:pageshadow="2"
     inkscape:window-width="2560"
     inkscape:window-height="1377"
     id="namedview839"
     showgrid="false"
     inkscape:zoom="0.906"
     inkscape:cx="666.66667"
     inkscape:cy="666.66667"
     inkscape:window-x="-8"
     inkscape:window-y="-8"
     inkscape:window-maximized="1"
     inkscape:current-layer="svg837" />
  <metadata
     id="metadata829">
Created by potrace 1.15, written by Peter Selinger 2001-2017
<rdf:RDF>
  <cc:Work
     rdf:about="">
    <dc:format>image/svg+xml</dc:format>
    <dc:type
       rdf:resource="http://purl.org/dc/dcmitype/StillImage" />
    <dc:title></dc:title>
  </cc:Work>
</rdf:RDF>
</metadata>
  <path
     style="fill:#5c2d91;stroke:none;stroke-width:0.1;fill-opacity:1"
     inkscape:connector-curvature="0"
     id="path831"
     d="m 940.8,48.7 c -0.8,1 -5,8.1 -9.3,15.8 -56.8,101.7 -118.4,152.8 -221.9,184 -24.5,7.4 -25.6,6.7 -15.5,-10 22.8,-38 38.5,-83.4 44.4,-128.8 1.7,-13.5 1.2,-15.7 -3.6,-15.7 -2.5,0 -4.9,1.9 -14.4,11.4 -50.9,50.9 -117.6,84.4 -187,94 -6,0.8 -12.8,1.8 -15,2.1 -2.2,0.3 -43.8,1 -92.5,1.4 -92,0.9 -92.8,0.9 -120,5.6 -31.4,5.3 -71,18.5 -100.4,33.2 C 109,290.1 37,380.6 10.6,486.5 c -3.2,12.9 -6,27.8 -8.3,43.5 -2.2,15.8 -2.6,76.3 -0.5,93 10.9,88.3 44.8,161.4 102.2,220.4 58.8,60.3 135.2,96.9 223.5,107.1 19.7,2.2 58.9,3 83.5,1.6 128.8,-7.3 229.7,-45.3 318.9,-120.1 16.8,-14.1 47.1,-43.7 47.1,-46.1 0,-3.2 -2.7,-2.2 -15.8,6 -55,34 -116.7,60.2 -180.7,76.6 -93.6,23.9 -199.8,27.8 -272.5,10 C 260.8,866.9 219.5,846.7 181.9,816.9 168.6,806.3 144.7,782.5 134,769 85.5,707.9 61.6,630.2 68,554.5 79.8,417.3 178.5,304.7 312.2,276.1 c 63.7,-13.6 130,-6.5 190.2,20.5 22,9.9 45.1,24 64.8,39.5 13.2,10.4 41.3,38.6 50.8,50.9 41.9,54.3 64.5,117.6 67.6,189.1 0.9,22.6 -1.5,40.5 -8.1,60.6 -6.8,20.3 -16.7,36.6 -30.9,50.9 -23.4,23.5 -51.3,33.9 -83.9,31.3 -26.9,-2.2 -49.1,-11.3 -66.5,-27.4 -6.6,-6.1 -15.4,-16.7 -16.4,-19.7 -0.3,-0.7 -4,2.4 -8.7,7.4 -29.7,31.3 -71.5,48.4 -114.1,46.5 -94.5,-4.2 -162.9,-95.2 -140.4,-186.7 10.7,-43.5 40.8,-80.8 80.9,-100.5 13.8,-6.7 20.6,-9.2 35,-12.7 8.6,-2.1 11.5,-2.2 67,-2.5 63.5,-0.5 65.1,-0.4 77.2,5.2 16.8,7.7 29,21.5 34.9,39.5 1.6,5 1.9,11.4 2.4,72 0.6,64.1 0.7,66.8 2.8,74.3 6.8,24.6 22.4,38.7 46.2,41.6 29.6,3.7 50.6,-12.7 59.7,-46.6 2.4,-9 2.6,-11.4 2.7,-29.8 0,-40.5 -8.2,-74.8 -26.9,-111.3 C 566.3,404.8 507,357.1 439.3,340.1 c -53.5,-13.5 -108,-9.5 -158,11.5 -78,32.6 -133.9,103.5 -148.3,188 -10.3,60 2,117.5 36,168.7 41.7,62.8 110.2,105.1 188,116.3 15.2,2.1 78.9,3.1 102.7,1.5 77.8,-5.2 149.5,-24.5 218.3,-58.7 60.8,-30.3 107.8,-64.1 156,-112.4 47.8,-47.7 81.4,-94.3 110.4,-153 29.9,-60.5 47.1,-120.9 53.8,-189 2.1,-21.3 1.8,-92.5 -0.5,-111 -6.5,-53.3 -18.4,-95.3 -38.8,-137 -3.9,-8 -7.8,-15.3 -8.6,-16.3 -0.9,-0.9 -3,-1.7 -4.8,-1.7 -1.8,0 -3.8,0.8 -4.7,1.7 z" />
  <g
     transform="matrix(0.24655358,0,0,0.24317475,240.28942,452.24374)"
     id="g6"
     style="stroke-width:23.1533516;stroke-miterlimit:4;stroke-dasharray:none;stroke:#000000;stroke-opacity:1">
    <path
       inkscape:connector-curvature="0"
       d="m 500,10 c -0.1,0 -0.3,0 -0.4,0 -0.1,0 -0.1,0 -0.2,0 -0.2,0 -0.4,0 -0.6,0 C 228.7,10.6 10,229.8 10,500 c 0,270.2 218.7,489.3 488.8,490 0.2,0 0.4,0 0.6,0 0.1,0 0.1,0 0.2,0 0.2,0 0.3,0 0.4,0 C 770.6,990 990,770.6 990,500 990,229.4 770.6,10 500,10 Z m 19.6,293.2 c 51.9,-1.4 102.5,-8.3 151.2,-20.1 14.7,57.8 23.8,124.3 25.2,197.3 H 519.6 Z m 0,-39.2 V 52.3 C 572.4,66.9 626,137.4 660.1,245.4 614.8,256.3 567.9,262.7 519.6,264 Z M 480.4,51.8 V 264 c -48.7,-1.4 -96,-7.8 -141.6,-19 C 373.2,136.4 427.2,65.7 480.4,51.8 Z m 0,251.4 V 480.4 H 302.8 c 1.4,-73.1 10.6,-139.7 25.2,-197.5 49.1,12 100,18.9 152.4,20.3 z M 263.3,480.4 H 49.7 c 4.3,-100.8 41.9,-193.1 102,-266.2 43.6,24 89.9,43.7 138.4,58.4 -15.8,62.5 -25.3,133 -26.8,207.8 z m 0,39.2 c 1.4,74.8 10.9,145.2 26.8,207.8 -48.5,14.7 -94.8,34.4 -138.4,58.5 C 91.6,712.7 54,620.4 49.7,519.6 Z m 39.5,0 h 177.6 v 177 C 428,698 377.1,705 328,717 313.3,659.2 304.2,592.6 302.8,519.6 Z M 480.4,735.7 V 948.1 C 427.2,934.2 373.1,863.4 338.7,754.6 c 45.7,-11 93,-17.5 141.7,-18.9 z m 39.2,212 v -212 c 48.3,1.4 95.2,7.8 140.5,18.7 C 626,862.5 572.5,933.1 519.6,947.7 Z m 0,-251.1 v -177 H 696 C 694.6,592.5 685.5,659 670.8,716.7 622.1,704.8 571.6,698 519.6,696.6 Z m 215.8,-177 H 950.3 C 946,620.4 908.5,712.7 848.4,785.8 804.4,761.6 757.7,741.8 708.8,727 724.5,664.5 734,594.2 735.4,519.6 Z m 0,-39.2 C 734,405.7 724.5,335.3 708.7,272.8 757.6,258 804.3,238.2 848.2,214 c 60.2,73.1 97.7,165.5 102.1,266.3 z M 821.2,184.1 C 782.2,204.8 741,222 698.1,235 675.2,161.3 643,101.1 605,61.6 688.4,81.7 762.9,124.8 821.2,184.1 Z M 393.5,62 c -37.8,39.4 -69.9,99.3 -92.7,172.7 -42.6,-13 -83.4,-30 -122,-50.6 C 236.7,125.2 310.6,82.2 393.5,62 Z M 178.6,815.7 c 38.7,-20.6 79.5,-37.6 122.1,-50.6 22.8,73.4 54.9,133.4 92.7,172.9 C 310.6,917.8 236.6,874.7 178.6,815.7 Z m 426.3,122.6 c 38.1,-39.5 70.3,-99.7 93.2,-173.6 43,13.1 84.2,30.2 123.2,51 C 763,875.1 688.5,918.3 604.9,938.3 Z"
       id="path4"
       style="stroke-width:23.1533516;stroke-miterlimit:4;stroke-dasharray:none;stroke:#000000;stroke-opacity:1" />
  </g>
</svg>
